# xmcd
#
# Track frame offsets: 
#        150
#        33969
#        56719
#        84697
#        100105
#        132371
#        160460
#        191559
#
# Disc length: 3207 seconds
#
# Revision: 0
# Processed by: cddbd v1.5.2PL0 Copyright (c) Steve Scherf et al.
# Submitted via: ExactAudioCopy v0.99pb5
#
DISCID=680c8508
DTITLE=Tank Destroyer - Head of the Demon
DYEAR=1900
DGENRE=
TTITLE0=Broken Sermons of False Prophets
TTITLE1=Human Epidemic
TTITLE2=Withered
TTITLE3=Bonfires and Bloody Knuckles
TTITLE4=Saints Amongst the Begotten
TTITLE5=Apathy Lullaby
TTITLE6=Remnants of Lost Days
TTITLE7=Head of the Demon/M10
EXTD=
EXTT0=
EXTT1=
EXTT2=
EXTT3=
EXTT4=
EXTT5=
EXTT6=
EXTT7=
PLAYORDER=
